<!DOCTYPE svg PUBLIC "-//W3C//DTD SVG 20010904//EN" "http://www.w3.org/TR/2001/REC-SVG-20010904/DTD/svg10.dtd">
<svg version="1.0" xmlns="http://www.w3.org/2000/svg" width="444px" height="448px" viewBox="0 0 4440 4480" preserveAspectRatio="xMidYMid meet">
<g id="layer101" fill="#010101" stroke="none">
 <path d="M2317 4278 c12 -274 8 -1089 -6 -1278 -6 -91 -18 -220 -26 -287 l-14 -121 34 -81 c60 -143 119 -370 132 -510 l6 -65 -34 24 c-61 43 -125 99 -148 131 l-23 31 17 75 c13 55 16 96 12 152 -7 80 -32 181 -46 181 -12 0 -49 -118 -61 -197 -8 -51 -8 -84 1 -131 l12 -64 -89 -89 c-60 -60 -92 -85 -98 -79 -6 6 -13 72 -16 148 l-5 137 37 41 c72 79 108 193 123 394 8 112 20 176 61 345 35 138 35 143 35 360 0 121 -2 229 -4 240 -3 11 -8 76 -12 145 -4 69 -8 127 -10 130 -2 3 -6 59 -10 125 -4 66 -9 129 -10 140 -1 11 -3 55 -4 99 l-1 78 -26 -6 c-90 -23 -122 -106 -103 -268 4 -35 15 -144 23 -243 9 -99 18 -198 21 -220 2 -22 7 -83 11 -135 3 -52 8 -98 10 -101 1 -3 6 -84 10 -180 l7 -175 -108 -114 c-150 -159 -155 -168 -156 -268 0 -44 5 -133 11 -197 7 -64 11 -169 8 -233 l-4 -117 -49 -90 -49 -90 -2 -142 c0 -79 -3 -145 -5 -147 -2 -2 -31 -11 -64 -21 -33 -9 -75 -25 -95 -35 -97 -50 -258 -220 -245 -260 17 -54 14 -70 -31 -155 l-46 -87 20 -46 c11 -26 30 -85 42 -132 25 -100 53 -166 82 -197 29 -31 45 -29 69 9 19 31 20 43 13 179 l-6 147 138 106 c76 58 178 129 226 157 81 48 89 56 99 93 21 83 31 106 51 117 11 6 23 8 26 4 4 -4 7 -64 6 -133 0 -125 -1 -130 -52 -292 -29 -91 -55 -181 -58 -201 -6 -35 -12 -40 -132 -105 -97 -53 -143 -85 -198 -139 -87 -86 -115 -148 -122 -275 l-4 -85 56 -53 c97 -92 189 -121 276 -86 36 14 39 19 33 43 -3 14 -23 58 -44 97 -22 39 -39 76 -39 82 0 6 32 28 70 48 39 20 75 44 79 53 6 10 2 39 -10 76 -10 33 -17 66 -14 72 2 7 20 13 40 13 65 0 101 -67 108 -195 l2 -49 -46 -11 c-49 -11 -79 -30 -79 -50 0 -32 63 -134 98 -158 77 -52 93 -54 457 -46 145 3 178 1 225 -15 30 -10 59 -22 64 -27 6 -5 19 -9 30 -9 42 0 107 162 101 252 -3 47 -71 193 -125 266 -35 49 -67 65 -160 82 -90 16 -131 43 -246 162 -54 57 -108 110 -120 118 -20 15 -20 20 -13 210 7 188 22 287 44 283 6 -1 22 -37 37 -80 16 -43 36 -89 46 -103 29 -38 87 -74 194 -120 171 -73 217 -133 274 -356 19 -75 44 -154 55 -176 22 -43 86 -118 101 -118 9 0 6 59 -12 200 -6 55 -5 68 10 85 38 43 67 131 72 221 2 39 -2 46 -61 105 -108 109 -184 237 -237 402 -28 88 -29 89 -96 139 -124 91 -133 118 -90 258 16 52 32 116 36 141 8 58 -8 134 -38 174 -51 69 -71 169 -69 360 0 99 6 175 17 223 15 68 15 75 -1 105 -9 18 -42 57 -73 88 l-57 55 13 75 c15 94 21 148 29 257 4 48 8 101 10 117 6 39 20 585 20 744 l0 125 -63 53 c-34 29 -67 53 -73 53 -7 0 -7 -59 -2 -182z"/>
 <path d="M2580 4050 c0 -7 3 -10 7 -7 3 4 3 10 0 14 -4 3 -7 0 -7 -7z"/>
 <path d="M2578 4010 c-4 -14 -10 -65 -13 -115 -7 -104 -10 -143 -30 -395 -8 -102 -23 -243 -32 -314 l-16 -128 35 -34 36 -33 22 51 c37 86 52 182 52 341 0 81 -3 173 -6 205 -15 146 -36 371 -39 407 -2 34 -4 36 -9 15z"/>
 <path d="M1957 3718 c-46 -186 -87 -501 -87 -660 0 -142 4 -144 91 -61 49 47 59 61 55 82 -7 38 -15 138 -21 286 -6 137 -24 368 -30 373 -1 2 -5 -7 -8 -20z"/>
 <path d="M1055 3289 c-196 -30 -331 -113 -398 -246 -14 -27 -41 -109 -61 -181 -57 -211 -50 -357 30 -601 45 -139 128 -303 212 -421 74 -104 223 -259 320 -334 l63 -48 41 38 c23 20 84 57 137 81 140 64 159 75 201 111 52 44 60 70 28 96 -14 12 -112 91 -219 177 -286 231 -414 370 -481 524 -107 244 -47 484 143 581 93 47 137 56 297 61 l154 5 -43 44 c-89 90 -265 137 -424 113z"/>
 <path d="M3208 3095 c-53 -14 -124 -53 -150 -82 -16 -18 -15 -18 55 -15 132 7 251 -33 337 -114 149 -139 151 -389 5 -615 -45 -69 -118 -146 -386 -404 -97 -94 -143 -146 -164 -186 l-29 -57 18 -63 c28 -104 83 -203 153 -279 95 -103 90 -102 181 -28 367 300 577 620 678 1033 32 133 34 311 4 407 -56 181 -240 345 -446 398 -87 23 -186 24 -256 5z"/>
 </g>

</svg>