<svg xmlns="http://www.w3.org/2000/svg" width="13.4" height="8.527" viewBox="0 0 13.4 8.527"><defs><style>.a{fill:#555;}</style></defs><path class="a" d="M10.636,11.155A1.827,1.827,0,1,0,8.809,9.327,1.82,1.82,0,0,0,10.636,11.155Zm-4.873,0A1.827,1.827,0,1,0,3.936,9.327,1.82,1.82,0,0,0,5.764,11.155Zm0,1.218c-1.419,0-4.264.713-4.264,2.132v1.523h8.527V14.5C10.027,13.085,7.183,12.373,5.764,12.373Zm4.873,0c-.177,0-.378.012-.591.03a2.57,2.57,0,0,1,1.2,2.1v1.523H14.9V14.5C14.9,13.085,12.056,12.373,10.636,12.373Z" transform="translate(-1.5 -7.5)"/></svg>