<svg fill="white" id="jedilogo" xmlns="http://www.w3.org/2000/svg" width="110.133" height="110.81"
     viewBox="0 0 42.133 42.81">
    <path d="M37.463,34.5C46.48,23.024,39.08,12.587,39.08,12.587c4.269,8.068-3.893,16.032-3.893,16.032C45.06,12.493,29.5,3.09,29.5,3.09c9.111,6.836-.95,17.931-.95,17.931,8.067,14.894-6.45,21.636-6.45,21.636s-.038-1.589-.207-8.058c.4.423,3.244,3.4,3.244,3.4L22.86,33.546l5.886-.856-5.886-.856,1.9-5.218-2.952,4.316c-.207-8.246-.733-28.688-.743-28.857v0c0,.094-.527,20.592-.743,28.857l-2.952-4.316,1.9,5.218-5.886.856,5.886.856L16.993,38l3.244-3.4c-.169,6.469-.207,8.058-.207,8.058S5.512,35.915,13.58,21.021c0,0-10.061-11.1-.95-17.931,0,0-15.561,9.393-5.689,25.528,0,0-8.162-7.973-3.893-16.032,0,0-7.4,10.437,1.617,21.918,0,0-2.464-1.514-4.645-7.306,0,0,1.589,17.235,20.874,17.461h.386C40.556,44.434,42.155,27.2,42.155,27.2c-2.219,5.783-4.692,7.306-4.692,7.306Z"
          transform="translate(-0.021 -1.849)"/>
</svg>