<svg fill="white" xmlns="http://www.w3.org/2000/svg" width="110" height="110" viewBox="0 0 42.124 42.124">
    <path d="M0,2.25,6.555,13.416,1.02,12.333l6.567,8.559a13.8,13.8,0,0,0,0,4.838L1.02,34.289l5.534-1.083L0,44.374l11.166-6.555-1.083,5.534,8.559-6.567a13.769,13.769,0,0,0,4.84,0l8.559,6.567-1.083-5.534,11.166,6.555L35.569,33.206,41.1,34.289l-6.567-8.559a13.775,13.775,0,0,0,0-4.838L41.1,12.333l-5.534,1.083L42.124,2.25,30.958,8.8l1.083-5.538-8.562,6.57a13.678,13.678,0,0,0-4.835,0l-8.562-6.57L11.166,8.8Zm21.062,9.382a11.677,11.677,0,1,1-8.26,3.417,11.645,11.645,0,0,1,8.26-3.417Zm0,3.447a8.232,8.232,0,1,0,5.822,2.408,8.2,8.2,0,0,0-5.822-2.408Z"
          transform="translate(0 -2.25)"/>
</svg>